<svg width="20" height="20" viewBox="0 0 20 20" fill="none" xmlns="http://www.w3.org/2000/svg">
<g id="icons/00133_01_profiledetails_outline" clip-path="url(#clip0_5382_10830)">
<path id="00133_01_profiledetails_outline" d="M1.66699 15V13.3333H18.3337V15H1.66699ZM8.33366 11.6667V10H18.3337V11.6667H8.33366ZM1.66699 11.6667V9.16667H6.66699V11.6667H1.66699ZM8.33366 8.33333V6.66667H18.3337V8.33333H8.33366ZM2.50033 6.66667C2.50033 6.22464 2.67594 5.80074 2.98851 5.48818C3.30107 5.17562 3.72496 5 4.16699 5C4.60902 5 5.03292 5.17562 5.34548 5.48818C5.65804 5.80074 5.83366 6.22464 5.83366 6.66667C5.83366 7.10869 5.65804 7.53259 5.34548 7.84515C5.03292 8.15771 4.60902 8.33333 4.16699 8.33333C3.72496 8.33333 3.30107 8.15771 2.98851 7.84515C2.67594 7.53259 2.50033 7.10869 2.50033 6.66667Z" fill="#7B7B7B"/>
</g>
<defs>
<clipPath id="clip0_5382_10830">
<rect width="20" height="20" fill="white"/>
</clipPath>
</defs>
</svg>
