<svg width="60" height="60" viewBox="0 0 60 60" fill="none" xmlns="http://www.w3.org/2000/svg">
<g clip-path="url(#clip0_1761_244668)">
<path fill-rule="evenodd" clip-rule="evenodd" d="M55.8372 47.25L33.1622 8.125C32.4372 6.875 31.1872 6.25 29.9122 6.25C28.6372 6.25 27.3872 6.875 26.6622 8.125L4.01217 47.25C2.56217 49.75 4.36217 52.875 7.26217 52.875H52.5872C55.4872 52.875 57.2872 49.75 55.8372 47.25ZM9.43717 47.875L29.9372 12.5L50.4372 47.9H9.43717V47.875ZM29.9371 44.5749C31.3178 44.5749 32.4371 43.4556 32.4371 42.0749C32.4371 40.6942 31.3178 39.5749 29.9371 39.5749C28.5564 39.5749 27.4371 40.6942 27.4371 42.0749C27.4371 43.4556 28.5564 44.5749 29.9371 44.5749ZM27.6122 34.7499V24.3749C27.6122 23.0999 28.6372 22.0749 29.9122 22.0749C31.1872 22.0749 32.2122 23.0999 32.2122 24.3749V34.7499C32.2122 36.0249 31.1872 37.0499 29.9122 37.0499C28.6372 37.0499 27.6122 36.0249 27.6122 34.7499Z" fill="#CE0000"/>
</g>
<defs>
<clipPath id="clip0_1761_244668">
<rect width="60" height="60" fill="white"/>
</clipPath>
</defs>
</svg>
