<?xml version="1.0" standalone="no"?>
<!DOCTYPE svg PUBLIC "-//W3C//DTD SVG 20010904//EN"
 "http://www.w3.org/TR/2001/REC-SVG-20010904/DTD/svg10.dtd">
<svg version="1.0" xmlns="http://www.w3.org/2000/svg"
 width="546.000000pt" height="564.000000pt" viewBox="0 0 546.000000 564.000000"
 preserveAspectRatio="xMidYMid meet">
<metadata>
Created by potrace 1.16, written by Peter Selinger 2001-2019
</metadata>
<g transform="translate(0.000000,564.000000) scale(0.100000,-0.100000)"
fill="#000000" stroke="none">
<path d="M1396 5309 c-62 -15 -153 -68 -197 -116 -22 -24 -55 -74 -72 -111
l-32 -67 -3 -1769 -2 -1769 22 17 c143 105 219 135 361 143 l97 6 0 1838 0
1839 -67 -1 c-38 -1 -85 -5 -107 -10z"/>
<path d="M1730 4840 l0 -480 1360 0 1360 0 0 480 0 480 -1360 0 -1360 0 0
-480z m474 308 c55 -16 138 -99 154 -154 22 -74 22 -74 -68 -74 -65 0 -80 3
-80 15 0 27 -47 65 -80 65 -19 0 -40 -9 -55 -25 -24 -23 -25 -31 -25 -135 0
-104 1 -112 25 -135 15 -16 36 -25 55 -25 33 0 80 38 80 65 0 12 15 15 80 15
90 0 90 0 68 -74 -16 -55 -99 -138 -154 -154 -94 -28 -169 -8 -239 63 -64 63
-75 100 -75 245 0 145 11 182 75 245 70 71 145 90 239 63z m560 0 c55 -16 138
-99 154 -154 7 -23 12 -92 12 -154 0 -62 -5 -131 -12 -154 -16 -55 -99 -138
-154 -154 -94 -28 -169 -8 -239 63 -64 63 -75 100 -75 245 0 145 11 182 75
245 70 71 145 90 239 63z m371 -2 c11 -8 40 -55 65 -105 24 -50 47 -91 50 -91
3 0 26 41 50 91 25 50 54 97 65 105 30 22 73 17 100 -11 l25 -24 0 -296 0
-295 -80 0 -80 0 0 108 c-1 90 -3 104 -14 90 -17 -23 -61 -39 -83 -31 -10 3
-28 15 -40 26 l-23 20 0 -106 0 -107 -80 0 -80 0 0 295 0 296 25 24 c27 28 70
33 100 11z m595 -306 l0 -320 -80 0 -80 0 0 320 0 320 80 0 80 0 0 -320z m394
308 c55 -16 138 -99 154 -154 22 -74 22 -74 -68 -74 -65 0 -80 3 -80 15 0 27
-47 65 -80 65 -19 0 -40 -9 -55 -25 -24 -23 -25 -31 -25 -135 0 -104 1 -112
25 -135 15 -16 36 -25 55 -25 33 0 80 38 80 65 0 12 15 15 80 15 90 0 90 0 68
-74 -16 -55 -99 -138 -154 -154 -94 -28 -169 -8 -239 63 -64 63 -75 100 -75
245 0 145 11 182 75 245 70 71 145 90 239 63z"/>
<path d="M2635 4975 c-24 -23 -25 -31 -25 -135 0 -104 1 -112 25 -135 15 -16
36 -25 55 -25 19 0 40 9 55 25 24 23 25 31 25 135 0 104 -1 112 -25 135 -15
16 -36 25 -55 25 -19 0 -40 -9 -55 -25z"/>
<path d="M1730 2920 l0 -1280 1360 0 1360 0 0 1280 0 1280 -1360 0 -1360 0 0
-1280z m2535 1095 l25 -24 0 -1071 0 -1071 -25 -24 -24 -25 -1151 0 -1151 0
-24 25 -25 24 0 1071 0 1071 25 24 24 25 1151 0 1151 0 24 -25z"/>
<path d="M2050 2920 l0 -960 1040 0 1040 0 0 960 0 960 -1040 0 -1040 0 0
-960z m1519 800 c30 -21 56 -42 59 -44 6 -7 -225 -316 -236 -316 -7 0 -103 68
-120 84 -6 7 225 316 236 316 5 0 32 -18 61 -40z m-947 -142 c79 -14 174 -2
251 31 26 11 47 19 47 17 0 -2 -7 -20 -15 -39 -47 -113 19 -277 134 -332 48
-23 50 -30 15 -39 -14 -4 -50 -30 -78 -59 -58 -57 -86 -121 -86 -193 l0 -42
-61 19 c-38 12 -90 19 -139 19 -49 0 -101 -7 -139 -19 l-61 -19 0 42 c0 72
-28 136 -86 193 -28 29 -64 55 -78 59 -35 8 -33 16 13 38 115 55 183 220 137
330 -9 21 -16 40 -16 42 0 2 21 -6 47 -17 25 -11 77 -25 115 -31z m1188 -418
l0 -80 -200 0 -200 0 0 80 0 80 200 0 200 0 0 -80z m-308 -302 c79 -14 174 -2
251 31 26 11 47 19 47 17 0 -2 -7 -20 -15 -39 -47 -113 19 -277 134 -332 48
-23 50 -30 15 -39 -14 -4 -50 -30 -78 -59 -58 -57 -86 -121 -86 -193 l0 -42
-61 19 c-38 12 -90 19 -139 19 -49 0 -101 -7 -139 -19 l-61 -19 0 42 c0 72
-28 136 -86 193 -28 29 -64 55 -78 59 -35 8 -33 16 13 38 115 55 183 220 137
330 -9 21 -16 40 -16 42 0 2 21 -6 47 -17 25 -11 77 -25 115 -31z m-899 -248
c21 -28 40 -57 43 -65 4 -9 -47 -53 -150 -131 -86 -64 -159 -115 -162 -112
-16 17 -84 113 -84 120 0 7 300 237 310 238 3 0 23 -23 43 -50z m327 -290 l0
-200 -80 0 -80 0 0 200 0 200 80 0 80 0 0 -200z"/>
<path d="M1396 1469 c-62 -15 -153 -68 -197 -116 -22 -24 -55 -74 -72 -111
-29 -61 -32 -76 -32 -163 0 -90 2 -99 37 -171 45 -91 103 -147 196 -191 l67
-32 1502 -3 1501 -2 -34 77 -33 78 -1453 5 c-1395 5 -1454 6 -1491 24 -77 38
-137 133 -137 216 0 83 60 178 137 216 37 18 96 19 1491 24 l1453 5 33 78 34
77 -1482 -1 c-852 -1 -1497 -5 -1520 -10z"/>
<path d="M1435 1135 c-16 -15 -25 -36 -25 -55 0 -19 9 -40 25 -55 l24 -25
1416 0 1415 0 0 80 0 80 -1415 0 -1416 0 -24 -25z"/>
</g>
</svg>
