<?xml version="1.0" standalone="no"?>
<!DOCTYPE svg PUBLIC "-//W3C//DTD SVG 20010904//EN"
 "http://www.w3.org/TR/2001/REC-SVG-20010904/DTD/svg10.dtd">
<svg version="1.0" xmlns="http://www.w3.org/2000/svg"
 width="3001.000000pt" height="3001.000000pt" viewBox="0 0 3001.000000 3001.000000"
 preserveAspectRatio="xMidYMid meet">
<metadata>
Created by potrace 1.16, written by Peter Selinger 2001-2019
</metadata>
<g transform="translate(0.000000,3001.000000) scale(0.100000,-0.100000)"
fill="#000000" stroke="none">
<path d="M13580 21216 c-196 -42 -370 -152 -484 -306 -23 -31 -666 -1139
-1431 -2463 l-1389 -2406 -1056 -3 c-1176 -4 -1090 1 -1250 -74 -208 -98 -371
-294 -436 -524 -18 -62 -19 -182 -22 -2985 -2 -2044 1 -2939 8 -2985 53 -318
278 -570 590 -657 62 -17 256 -18 4805 -18 4560 0 4742 1 4804 18 283 80 494
290 577 572 15 52 18 121 23 502 l6 442 125 -70 c130 -72 208 -102 313 -119
294 -48 617 94 778 340 76 115 2884 4988 2906 5041 100 245 75 519 -68 740
-48 73 -126 158 -189 203 -25 19 -1660 966 -3635 2106 -1974 1139 -3779 2181
-4010 2315 -487 281 -499 288 -597 316 -94 27 -276 34 -368 15z m235 -451 c46
-12 995 -556 4075 -2333 4387 -2532 4094 -2356 4140 -2479 25 -68 29 -178 7
-238 -19 -53 -72 -140 -84 -138 -5 1 -182 102 -394 224 -529 306 -914 528
-4779 2759 -1862 1074 -3387 1955 -3389 1957 -9 6 46 98 86 142 63 71 157 116
253 120 14 1 52 -6 85 -14z m1692 -3076 c3584 -2070 3990 -2304 4956 -2862
604 -348 797 -464 792 -475 -9 -24 -2033 -3530 -2081 -3603 -45 -71 -103 -119
-176 -145 -54 -20 -171 -21 -223 -2 -22 8 -134 68 -248 134 l-207 119 -3 2265
c-3 2552 6 2294 -82 2475 -97 199 -263 340 -490 417 l-70 23 -3436 5 -3437 5
942 1632 c517 898 944 1632 948 1633 4 0 1270 -730 2815 -1621z m2098 -2114
c154 -40 246 -159 261 -337 l7 -88 -4953 0 -4952 0 4 98 c6 134 45 210 142
277 102 69 -320 64 4796 64 4134 1 4642 -1 4695 -14z m263 -3942 l-3 -2118
-31 -65 c-55 -115 -144 -182 -268 -201 -37 -6 -1886 -8 -4696 -7 l-4635 3 -60
28 c-72 34 -137 94 -173 162 l-27 50 -3 2133 -2 2132 4950 0 4950 0 -2 -2117z"/>
<path d="M8831 11079 c-100 -20 -172 -100 -179 -199 -5 -75 11 -123 60 -176
71 -77 52 -75 754 -72 l619 3 45 25 c55 31 105 102 114 163 14 94 -38 192
-128 240 -41 22 -42 22 -641 24 -330 1 -620 -3 -644 -8z"/>
<path d="M10743 11080 c-113 -23 -183 -108 -183 -222 0 -64 25 -121 71 -165
67 -64 58 -63 728 -63 480 1 614 4 644 14 93 34 152 117 151 216 0 85 -47 159
-129 203 -40 22 -46 22 -640 24 -330 1 -619 -3 -642 -7z"/>
<path d="M12653 11080 c-115 -24 -183 -107 -183 -225 0 -62 22 -114 66 -159
65 -64 28 -61 707 -64 400 -2 631 1 656 8 98 26 164 115 164 219 0 87 -46 160
-128 204 -40 22 -46 22 -640 24 -330 1 -619 -3 -642 -7z"/>
</g>
</svg>
