<?xml version="1.0" encoding="UTF-8"?>
<svg xmlns="http://www.w3.org/2000/svg" xmlns:xlink="http://www.w3.org/1999/xlink" width="3001" height="3001" viewBox="0 0 3001 3001">
<path fill-rule="evenodd" fill="rgb(100%, 100%, 100%)" fill-opacity="1" d="M 1 0 L 3001 0 L 3001 3000 L 1 3000 L 1 0 "/>
<path fill-rule="nonzero" fill="rgb(0%, 0%, 0%)" fill-opacity="1" d="M 830.773438 1396.828125 L 1027.660156 1396.828125 L 1304.289062 917.710938 C 1315.25 898.730469 1332.96875 885.949219 1352.660156 880.679688 C 1372.328125 875.410156 1394.058594 877.621094 1413.089844 888.609375 L 1414.21875 889.320312 L 2209.179688 1348.28125 C 2210.449219 1348.851562 2211.660156 1349.539062 2212.789062 1350.339844 C 2230.871094 1361.351562 2243.078125 1378.609375 2248.191406 1397.730469 C 2253.300781 1416.808594 2251.371094 1437.800781 2241.25 1456.398438 C 2240.660156 1457.660156 2239.960938 1458.859375 2239.160156 1459.980469 L 2224.121094 1486.039062 L 2223.980469 1486.289062 L 2177.039062 1567.589844 L 2176.75 1568.078125 L 1957.339844 1948.109375 L 1957.019531 1948.640625 C 1946.011719 1967.390625 1928.449219 1980.019531 1908.980469 1985.230469 C 1889.339844 1990.5 1867.648438 1988.269531 1848.648438 1977.308594 L 1848.429688 1977.179688 L 1831.988281 1967.691406 L 1831.988281 2042.359375 C 1831.988281 2064.183594 1823.03125 2084.105469 1808.601562 2098.566406 L 1808.550781 2098.609375 L 1808.511719 2098.65625 L 1808.46875 2098.695312 C 1794.011719 2113.109375 1774.109375 2122.054688 1752.300781 2122.054688 L 830.773438 2122.054688 C 808.835938 2122.054688 788.898438 2113.085938 774.46875 2098.65625 C 760.046875 2084.230469 751.078125 2064.296875 751.078125 2042.359375 L 751.078125 1476.519531 C 751.078125 1454.648438 760.046875 1434.738281 774.46875 1420.308594 L 774.558594 1420.21875 C 788.988281 1405.800781 808.902344 1396.828125 830.773438 1396.828125 Z M 1080.011719 1396.828125 L 1752.300781 1396.828125 C 1774.238281 1396.828125 1794.171875 1405.800781 1808.601562 1420.21875 C 1823.03125 1434.648438 1831.988281 1454.589844 1831.988281 1476.519531 L 1831.988281 1915.441406 L 1869.378906 1937.03125 C 1870.5 1937.539062 1871.589844 1938.148438 1872.640625 1938.859375 C 1880.421875 1942.851562 1889.199219 1943.550781 1897.269531 1941.390625 C 1905.308594 1939.238281 1912.558594 1934.25 1917.261719 1926.941406 C 1917.808594 1925.808594 1918.460938 1924.71875 1919.199219 1923.679688 L 2126.519531 1564.589844 L 1269 1069.511719 Z M 1752.300781 1442.289062 L 830.773438 1442.289062 C 821.367188 1442.289062 812.804688 1446.109375 806.601562 1452.261719 L 806.511719 1452.359375 C 800.359375 1458.558594 796.53125 1467.121094 796.53125 1476.519531 L 796.53125 1486.371094 L 1786.539062 1486.371094 L 1786.539062 1476.519531 C 1786.539062 1467.128906 1782.679688 1458.570312 1776.46875 1452.359375 C 1770.261719 1446.148438 1761.691406 1442.289062 1752.300781 1442.289062 Z M 1786.539062 2042.359375 L 1786.539062 1625.699219 L 796.53125 1625.699219 L 796.53125 2042.359375 C 796.53125 2051.753906 800.398438 2060.320312 806.601562 2066.523438 C 812.8125 2072.734375 821.378906 2076.597656 830.773438 2076.597656 L 1752.300781 2076.597656 C 1761.75 2076.597656 1770.308594 2072.773438 1776.46875 2066.613281 L 1776.558594 2066.523438 C 1782.710938 2060.371094 1786.539062 2051.8125 1786.539062 2042.359375 Z M 887.433594 1937.921875 C 874.886719 1937.921875 864.707031 1927.75 864.707031 1915.199219 C 864.707031 1902.648438 874.886719 1892.46875 887.433594 1892.46875 L 1002.039062 1892.46875 C 1014.589844 1892.46875 1024.769531 1902.648438 1024.769531 1915.199219 C 1024.769531 1927.75 1014.589844 1937.921875 1002.039062 1937.921875 Z M 1078.371094 1937.921875 C 1065.820312 1937.921875 1055.640625 1927.75 1055.640625 1915.199219 C 1055.640625 1902.648438 1065.820312 1892.46875 1078.371094 1892.46875 L 1192.96875 1892.46875 C 1205.519531 1892.46875 1215.699219 1902.648438 1215.699219 1915.199219 C 1215.699219 1927.75 1205.519531 1937.921875 1192.96875 1937.921875 Z M 1269.289062 1937.921875 C 1256.738281 1937.921875 1246.558594 1927.75 1246.558594 1915.199219 C 1246.558594 1902.648438 1256.738281 1892.46875 1269.289062 1892.46875 L 1383.898438 1892.46875 C 1396.449219 1892.46875 1406.628906 1902.648438 1406.628906 1915.199219 C 1406.628906 1927.75 1396.449219 1937.921875 1383.898438 1937.921875 Z M 2188.460938 1388.558594 L 1391.648438 928.53125 C 1391.210938 928.320312 1390.78125 928.089844 1390.359375 927.839844 C 1382.25 923.160156 1372.890625 922.238281 1364.371094 924.519531 C 1355.871094 926.789062 1348.21875 932.300781 1343.53125 940.429688 L 1338.558594 949.03125 L 2196.078125 1444.109375 L 2200.308594 1436.78125 L 2201.03125 1435.429688 C 2205.710938 1427.320312 2206.628906 1417.96875 2204.351562 1409.449219 C 2202.070312 1400.941406 2196.578125 1393.300781 2188.441406 1388.601562 L 2188.460938 1388.558594 "/>
</svg>
