<svg xmlns="http://www.w3.org/2000/svg" viewBox="0 0 512 512"><!--!Font Awesome Free 6.6.0 by @fontawesome - https://fontawesome.com License - https://fontawesome.com/license/free Copyright 2024 Fonticons, Inc.--><path d="M512 0C460.2 3.6 96.4 38.2 71 287.6c-3.1 26.7-4.8 53.4-6 80.2l178.9-178.7c6.3-6.3 16.4-6.3 22.7 0s6.3 16.4 0 22.6L7 471c-9.4 9.4-9.4 24.6 0 33.9 9.4 9.4 24.6 9.4 34 0l57.1-57.1c42.1-.1 84.2-2.5 126-7.4 53.5-5.4 97-26.5 132.6-56.5H255.7l146.8-48.9c11.3-14.9 21.4-30.7 30.5-47.1h-81.1l106.5-53.2C500.3 132.9 510.2 26.3 512 0z"/></svg>